<svg xmlns="http://www.w3.org/2000/svg" width="240" height="240" fill="none"><rect width="240" height="240" fill="#fff" rx="27"/><path fill="#FC6D26" d="m120.7 159.2 46.4 37.5c3.3 2.6 6.6 4.6 11.2 4.6h1.3l3 5.3-6.2 10.8h-12.8l-20.8-36.2-30-.1-12.7-21.9h20.6Zm89.2 0-12.4 22h-3.8a25 25 0 0 0-.6-1.7v-.1l-8.4-20.2h25.2ZM41 178.2l-12.8-21.6L43 131H13.7l-6.3-10.9 6.4-11.1 41.8.1 15-25.9H96l-54.8 95ZM149 48l14.7-25.4h12.6l6.4 11-21 36.2 14.9 26-10.6 18.5-27.2-65.3c-2.2-6-8-9.7-14-9.6-2 0-3.8.3-5.5 1l-10.2-17.7 25.3-.3L149 48Z"/><path fill="url(#a)" d="m120.7 159.2 46.4 37.5c3.3 2.6 6.6 4.6 11.2 4.6h1.3l3 5.3-6.2 10.8h-12.8l-20.8-36.2-30-.1-12.7-21.9h20.6Zm89.2 0-12.4 22h-3.8a25 25 0 0 0-.6-1.7v-.1l-8.4-20.2h25.2ZM41 178.2l-12.8-21.6L43 131H13.7l-6.3-10.9 6.4-11.1 41.8.1 15-25.9H96l-54.8 95ZM149 48l14.7-25.4h12.6l6.4 11-21 36.2 14.9 26-10.6 18.5-27.2-65.3c-2.2-6-8-9.7-14-9.6-2 0-3.8.3-5.5 1l-10.2-17.7 25.3-.3L149 48Z"/><path fill="#E24329" d="m103.6 170 27.4 47.4-25.2.3L91 192l-14.7 25.4H63.9l-6.5-11 3.6-6.2h20l1.4-3.8 15-37.3 6.2 10.7Zm-25.3-43.8-10.6 25.4-4.2-7.2 12.6-22 2.2 3.8Zm133.4-42.8L197 109h29.3l6.3 10.9-6.4 11h-41.8l-6.7 11.5L167 117l31.8-55.2 12.8 21.7ZM97.1 58.6h9.3l-9 22H30l12.4-22H72L57.3 33.3l6.2-10.8h12.8l20.8 36.2Z"/><path fill="url(#b)" d="m103.6 170 27.4 47.4-25.2.3L91 192l-14.7 25.4H63.9l-6.5-11 3.6-6.2h20l1.4-3.8 15-37.3 6.2 10.7Zm-25.3-43.8-10.6 25.4-4.2-7.2 12.6-22 2.2 3.8Zm133.4-42.8L197 109h29.3l6.3 10.9-6.4 11h-41.8l-6.7 11.5L167 117l31.8-55.2 12.8 21.7ZM97.1 58.6h9.3l-9 22H30l12.4-22H72L57.3 33.3l6.2-10.8h12.8l20.8 36.2Z"/><path fill="#000" d="m106.8 119.6 53.3 42-35.4-87-18 45Zm81.6 66.3a9.7 9.7 0 0 1-10 9.4c-2.6 0-4.7-1-7.5-3.3l-70.4-56.8-23.6 59.1H56.4l59.7-143.2a9 9 0 0 1 8.7-5.8 8.6 8.6 0 0 1 8.4 5.8l54.3 130.6c.5 1.3 1 2.6 1 4v.2Z"/><defs><linearGradient id="a" x1="181.2" x2="141" y1="114.6" y2="45.1" gradientUnits="userSpaceOnUse"><stop stop-color="#699AD7"/><stop offset=".2" stop-color="#7EB1DD"/><stop offset="1" stop-color="#7EBAE4"/></linearGradient><linearGradient id="b" x1="151.1" x2="191.8" y1="167.7" y2="98.7" gradientUnits="userSpaceOnUse"><stop stop-color="#415E9A"/><stop offset=".2" stop-color="#4A6BAF"/><stop offset="1" stop-color="#5277C3"/></linearGradient></defs></svg>